<svg xmlns="http://www.w3.org/2000/svg" viewBox="0 0 1200 630" width="1200" height="630">
  <defs>
    <linearGradient id="ogGradient" x1="0%" y1="0%" x2="100%" y2="100%">
      <stop offset="0%" style="stop-color:#1a1a2e;stop-opacity:1" />
      <stop offset="50%" style="stop-color:#2d1b4e;stop-opacity:1" />
      <stop offset="100%" style="stop-color:#0f0f1a;stop-opacity:1" />
    </linearGradient>
    <linearGradient id="goldGradient" x1="0%" y1="0%" x2="100%" y2="0%">
      <stop offset="0%" style="stop-color:#ffd700;stop-opacity:1" />
      <stop offset="50%" style="stop-color:#ff8c00;stop-opacity:1" />
      <stop offset="100%" style="stop-color:#ffd700;stop-opacity:1" />
    </linearGradient>
    <filter id="glow">
      <feGaussianBlur stdDeviation="6" result="coloredBlur"/>
      <feMerge>
        <feMergeNode in="coloredBlur"/>
        <feMergeNode in="SourceGraphic"/>
      </feMerge>
    </filter>
  </defs>

  <!-- Background -->
  <rect width="1200" height="630" fill="url(#ogGradient)"/>

  <!-- Grid pattern -->
  <g opacity="0.1">
    <defs>
      <pattern id="ogGrid" width="60" height="60" patternUnits="userSpaceOnUse">
        <path d="M 60 0 L 0 0 0 60" fill="none" stroke="#ffffff" stroke-width="1"/>
      </pattern>
    </defs>
    <rect width="1200" height="630" fill="url(#ogGrid)"/>
  </g>

  <!-- Claw marks -->
  <g transform="translate(200, 315)" opacity="0.3">
    <path d="M-80,-60 Q-40,0 0,60" stroke="#ff4444" stroke-width="5" fill="none" stroke-linecap="round"/>
    <path d="M-40,-70 Q0,0 40,70" stroke="#ff4444" stroke-width="5" fill="none" stroke-linecap="round"/>
    <path d="M0,-75 Q40,0 80,75" stroke="#ff4444" stroke-width="5" fill="none" stroke-linecap="round"/>
  </g>

  <g transform="translate(1000, 315)" opacity="0.3">
    <path d="M-80,-60 Q-40,0 0,60" stroke="#ff4444" stroke-width="5" fill="none" stroke-linecap="round"/>
    <path d="M-40,-70 Q0,0 40,70" stroke="#ff4444" stroke-width="5" fill="none" stroke-linecap="round"/>
    <path d="M0,-75 Q40,0 80,75" stroke="#ff4444" stroke-width="5" fill="none" stroke-linecap="round"/>
  </g>

  <!-- Center content -->
  <g transform="translate(600, 200)">
    <text x="0" y="0" font-size="100" text-anchor="middle" filter="url(#glow)">🥊</text>
  </g>

  <!-- Main title -->
  <text x="600" y="360" font-family="Arial Black, Arial, sans-serif" font-size="64" font-weight="900" fill="url(#goldGradient)" text-anchor="middle" filter="url(#glow)">CLAW CLUB</text>

  <!-- Tagline -->
  <text x="600" y="410" font-family="Arial, sans-serif" font-size="22" fill="#ffffff" text-anchor="middle" opacity="0.9">OpenClaw arena — configs battle for supremacy</text>

  <!-- URL -->
  <text x="600" y="450" font-family="Monaco, monospace" font-size="18" fill="#8888aa" text-anchor="middle">clawclub.io</text>

  <!-- Bottom text -->
  <text x="600" y="500" font-family="Arial, sans-serif" font-size="16" fill="#666688" text-anchor="middle">The first rule of Claw Club: Bring your best config</text>

  <!-- Decorative elements -->
  <circle cx="100" cy="560" r="6" fill="url(#goldGradient)" opacity="0.5"/>
  <circle cx="1100" cy="560" r="6" fill="url(#goldGradient)" opacity="0.5"/>
  <rect x="150" y="558" width="80" height="2" fill="url(#goldGradient)" opacity="0.3"/>
  <rect x="970" y="558" width="80" height="2" fill="url(#goldGradient)" opacity="0.3"/>
</svg>
